<?xml version="1.0" encoding="utf-8"?>
<!-- Generator: Adobe Illustrator 29.0.0, SVG Export Plug-In . SVG Version: 9.03 Build 54978)  -->
<svg version="1.0" id="Livello_1" xmlns="http://www.w3.org/2000/svg" xmlns:xlink="http://www.w3.org/1999/xlink" x="0px" y="0px"
	 viewBox="0 0 288.5 59.6" style="enable-background:new 0 0 288.5 59.6;" xml:space="preserve">
<style type="text/css">
	.st0{fill:url(#SVGID_1_);}
	.st1{fill:url(#SVGID_00000070109403161654829130000012537176852445608358_);}
	.st2{fill:url(#SVGID_00000024001657798543789500000014768572810052125583_);}
	.st3{fill:url(#SVGID_00000067939564064062089530000016402192621233323440_);}
	.st4{fill:url(#SVGID_00000133507799877173069960000013662711791434687390_);}
	.st5{fill:url(#SVGID_00000109731056948755641440000001662419248757310117_);}
	.st6{fill:url(#SVGID_00000016779788915565591670000008103157548724874369_);}
	.st7{fill:url(#SVGID_00000019646502816445133210000012999949611058395041_);}
	.st8{fill:url(#SVGID_00000148630489958168790580000001214437559971885193_);}
	.st9{fill:url(#SVGID_00000033327368645713719980000009932145464125406341_);}
	.st10{fill:url(#SVGID_00000065789741354712489270000011985302122221976499_);}
	.st11{fill:url(#SVGID_00000019652841399653598570000011212852094966729103_);}
	.st12{fill:url(#SVGID_00000063623469629132634230000002776757157174602140_);}
	.st13{fill:url(#SVGID_00000070100833623699360060000013220853826564954245_);}
	.st14{fill:url(#SVGID_00000002355019447327525830000007259159489117030789_);}
	.st15{fill:url(#SVGID_00000137090843191882703530000012395348858053671592_);}
	.st16{fill:url(#SVGID_00000137845694315482657910000016667762550069001608_);}
	.st17{fill:url(#SVGID_00000150805576215554501660000014246598087518438787_);}
	.st18{fill:url(#SVGID_00000132769252385209302520000016723486640487645357_);}
	.st19{fill:url(#SVGID_00000054987465039886678490000011495412011362154886_);}
	.st20{fill:url(#SVGID_00000065036003022074264220000004269533275195685285_);}
	.st21{fill:url(#SVGID_00000119112175166232911270000009812654558283533496_);}
	.st22{fill:url(#SVGID_00000004546455369692807950000009461025681428326033_);}
	.st23{fill:url(#SVGID_00000008830280211012173670000015058771990591323319_);}
	.st24{fill:url(#SVGID_00000015324890987255993320000001371322592659623818_);}
	.st25{fill:url(#SVGID_00000000215375177885246580000009311934600691888018_);}
</style>
<g>
	<g>
		
			<linearGradient id="SVGID_1_" gradientUnits="userSpaceOnUse" x1="281.5421" y1="-371.3245" x2="281.5421" y2="-291.3793" gradientTransform="matrix(1 0 0 -1 -247.5 -309.5295)">
			<stop  offset="0" style="stop-color:#35337B"/>
			<stop  offset="0.4" style="stop-color:#35337B"/>
			<stop  offset="0.6" style="stop-color:#3E4590"/>
			<stop  offset="0.76" style="stop-color:#44519F"/>
			<stop  offset="1" style="stop-color:#44519F"/>
		</linearGradient>
		<path class="st0" d="M36.8,8.8c1-0.8,2.1-1.4,3.3-1.8c0.9-0.3,1.8-0.4,2.8-0.5h25.2V0h-25c0,0,0,0,0,0.1c-1.7,0-3.3,0.3-4.9,0.8
			c-2,0.6-3.8,1.7-5.5,3c-1.7,1.4-3,3-4,5L25,15.7l-0.2,0.4c-0.1,0.1-0.2,0.2-0.2,0.3c-0.8,1.5-1.6,3.2-2.5,5
			c-0.9,1.8-1.8,3.6-2.8,5.4c-0.9,1.8-1.8,3.4-2.5,4.8c-0.6-1.2-1.3-2.5-2.1-4.1s-1.7-3.2-2.6-5c-0.9-1.7-1.7-3.4-2.6-5.1
			c-0.9-1.7-1.6-3.2-2.3-4.5H0L14.5,41l2.3,4.5l3.3-6.4l0.7-1.3l0.1-0.3L34.8,11C35.4,10.2,36,9.4,36.8,8.8"/>
		
			<linearGradient id="SVGID_00000031203565461496285110000004619263585629720718_" gradientUnits="userSpaceOnUse" x1="384.8773" y1="-316.6463" x2="384.8773" y2="-307.4391" gradientTransform="matrix(1 0 0 -1 -247.5 -309.5295)">
			<stop  offset="0" style="stop-color:#35337B"/>
			<stop  offset="0.4" style="stop-color:#35337B"/>
			<stop  offset="0.6" style="stop-color:#3E4590"/>
			<stop  offset="0.76" style="stop-color:#44519F"/>
			<stop  offset="1" style="stop-color:#44519F"/>
		</linearGradient>
		<path style="fill:url(#SVGID_00000031203565461496285110000004619263585629720718_);" d="M195.9,0h-117v5.2h117V0z"/>
		
			<linearGradient id="SVGID_00000132777121566987397630000014236877664212766598_" gradientUnits="userSpaceOnUse" x1="299.434" y1="-366.705" x2="299.434" y2="-309.6468" gradientTransform="matrix(1 0 0 -1 -247.5 -309.5295)">
			<stop  offset="0" style="stop-color:#35337B"/>
			<stop  offset="0.4" style="stop-color:#35337B"/>
			<stop  offset="0.6" style="stop-color:#3E4590"/>
			<stop  offset="0.76" style="stop-color:#44519F"/>
			<stop  offset="1" style="stop-color:#44519F"/>
		</linearGradient>
		<path style="fill:url(#SVGID_00000132777121566987397630000014236877664212766598_);" d="M66.9,22.9c-0.8-1.9-2-3.7-3.5-5.1
			c-1.5-1.5-3.2-2.6-5.1-3.5s-4.1-1.3-6.3-1.3c-2.3,0-4.3,0.4-6.3,1.3c-2,0.8-3.7,2-5.2,3.5C39,19.3,37.8,21,37,22.9
			s-1.3,4.1-1.3,6.3c0,1.8,0.3,3.5,0.8,5.1c0.1,0.4,0.3,0.8,0.4,1.2c0.8,2,2,3.7,3.5,5.2c1.5,1.5,3.2,2.7,5.2,3.5
			c2,0.8,4.1,1.3,6.3,1.3h16.2V29.3c0-0.5,0-1.1-0.1-1.6C68,26,67.6,24.4,66.9,22.9 M61.7,39.1H52c-1.4,0-2.6-0.3-3.8-0.8
			c-1.2-0.5-2.3-1.2-3.1-2.1c-0.9-0.9-1.6-1.9-2.1-3.2c0-0.1-0.1-0.2-0.1-0.3c-0.4-1.1-0.7-2.3-0.7-3.6c0-1.4,0.3-2.6,0.8-3.8
			c0.5-1.2,1.2-2.2,2.1-3.1c0.9-0.9,1.9-1.6,3.1-2.1c1.2-0.5,2.5-0.8,3.8-0.8c1.4,0,2.6,0.3,3.8,0.8c1.2,0.5,2.2,1.2,3.1,2.1
			c0.9,0.9,1.6,1.9,2.1,3.1c0.4,1.1,0.7,2.2,0.7,3.4c0,0.1,0,0.3,0,0.4L61.7,39.1L61.7,39.1z"/>
		
			<linearGradient id="SVGID_00000148652317627757049080000012427229806566857367_" gradientUnits="userSpaceOnUse" x1="320.8362" y1="-371.3671" x2="320.8362" y2="-291.422" gradientTransform="matrix(1 0 0 -1 -247.5 -309.5295)">
			<stop  offset="0" style="stop-color:#35337B"/>
			<stop  offset="0.4" style="stop-color:#35337B"/>
			<stop  offset="0.6" style="stop-color:#3E4590"/>
			<stop  offset="0.76" style="stop-color:#44519F"/>
			<stop  offset="1" style="stop-color:#44519F"/>
		</linearGradient>
		<path style="fill:url(#SVGID_00000148652317627757049080000012427229806566857367_);" d="M70.1,27.4v18.2h6.4V26.4V0h-6.4V27.4z"
			/>
		
			<linearGradient id="SVGID_00000034083741844957119670000006279774729382367882_" gradientUnits="userSpaceOnUse" x1="355.64" y1="-366.705" x2="355.64" y2="-309.6468" gradientTransform="matrix(1 0 0 -1 -247.5 -309.5295)">
			<stop  offset="0" style="stop-color:#35337B"/>
			<stop  offset="0.4" style="stop-color:#35337B"/>
			<stop  offset="0.6" style="stop-color:#3E4590"/>
			<stop  offset="0.76" style="stop-color:#44519F"/>
			<stop  offset="1" style="stop-color:#44519F"/>
		</linearGradient>
		<path style="fill:url(#SVGID_00000034083741844957119670000006279774729382367882_);" d="M128.1,22.4c0.9,0.9,1.6,1.9,2.1,3.1
			s0.8,2.5,0.8,3.8v16.3h6.4V29.3c0-2.3-0.4-4.4-1.3-6.3c-0.3-0.7-0.7-1.4-1.1-2c-0.7-1.1-1.5-2.2-2.4-3.1c-1.5-1.5-3.2-2.6-5.2-3.5
			c-2-0.8-4.1-1.3-6.3-1.3c-2.7,0-5.1,0.6-7.4,1.8c-2.3,1.2-4.2,2.8-5.6,4.8c-1.5-2-3.4-3.6-5.6-4.8c-2.2-1.2-4.7-1.8-7.4-1.8
			c-2.2,0-4.3,0.4-6.3,1.3c-2,0.8-3.7,2-5.2,3.5c-1.5,1.5-2.6,3.2-3.5,5.1c-0.4,1-0.7,2-0.9,3c-0.2,1.1-0.3,2.2-0.3,3.3v16.3h6.4
			V29.3c0-1.4,0.3-2.6,0.8-3.8c0.1-0.2,0.2-0.3,0.2-0.5c0.5-1,1.1-1.9,1.9-2.6c0.9-0.9,1.9-1.6,3.1-2.1c1.2-0.5,2.5-0.8,3.8-0.8
			c1.4,0,2.6,0.3,3.8,0.8c1.2,0.5,2.3,1.2,3.2,2.1c0.2,0.2,0.5,0.5,0.7,0.8c0.6,0.7,1.1,1.5,1.4,2.4c0.5,1.2,0.8,2.5,0.8,3.8v16.3
			h6.4V29.3c0-1.4,0.3-2.6,0.8-3.8c0.5-1.2,1.2-2.2,2.1-3.1c0.1-0.1,0.2-0.2,0.3-0.3c0.8-0.8,1.8-1.4,2.8-1.8
			c1.2-0.5,2.5-0.8,3.8-0.8s2.6,0.3,3.8,0.8c0.7,0.3,1.3,0.6,1.9,1C127.3,21.6,127.7,22,128.1,22.4"/>
		
			<linearGradient id="SVGID_00000154394238561589290640000007602228277177686457_" gradientUnits="userSpaceOnUse" x1="402.274" y1="-366.8542" x2="402.274" y2="-309.796" gradientTransform="matrix(1 0 0 -1 -247.5 -309.5295)">
			<stop  offset="0" style="stop-color:#35337B"/>
			<stop  offset="0.4" style="stop-color:#35337B"/>
			<stop  offset="0.6" style="stop-color:#3E4590"/>
			<stop  offset="0.76" style="stop-color:#44519F"/>
			<stop  offset="1" style="stop-color:#44519F"/>
		</linearGradient>
		<path style="fill:url(#SVGID_00000154394238561589290640000007602228277177686457_);" d="M169.8,20.2l-2.2-2.2
			c-1.6-1.6-3.4-2.8-5.4-3.6c-2-0.8-4-1.2-6.1-1.2c-2.1,0-4.1,0.4-6.1,1.2c-2,0.8-3.8,2-5.4,3.6c-0.8,0.8-1.5,1.7-2.2,2.6
			c-0.6,0.9-1,1.8-1.4,2.7c-0.8,2-1.2,4-1.2,6.1c0,2.1,0.4,4.1,1.2,6.1c0.8,2,1.9,3.8,3.5,5.4c1.5,1.5,3.3,2.7,5.3,3.5
			c2,0.8,4,1.2,6.2,1.2c2.2,0,4.2-0.4,6.2-1.2c2-0.8,3.7-2,5.3-3.5l2.2-2.2l-4.6-4.6l-2.2,2.2c-1.5,1.5-3.3,2.5-5.4,2.8
			c-2,0.3-4,0-5.8-0.9l17.9-17.9L169.8,20.2L169.8,20.2z M157.4,23.5c-1.2,1.2-2.5,2.5-3.8,3.8s-2.6,2.6-3.8,3.8
			c-1.2,1.2-2.1,2.1-2.6,2.6c-0.7-1.4-1-2.8-1-4.3c0-2.7,1-5,2.9-6.9c0.9-0.9,1.9-1.6,3-2.1c0.8-0.3,1.6-0.6,2.4-0.7
			c1.8-0.3,3.5,0,5.1,0.6c0.2,0.1,0.5,0.2,0.7,0.3C159.6,21.3,158.7,22.3,157.4,23.5"/>
		
			<linearGradient id="SVGID_00000142861649120445211390000013994015785746889353_" gradientUnits="userSpaceOnUse" x1="435.7355" y1="-371.3671" x2="435.7355" y2="-291.422" gradientTransform="matrix(1 0 0 -1 -247.5 -309.5295)">
			<stop  offset="0" style="stop-color:#35337B"/>
			<stop  offset="0.4" style="stop-color:#35337B"/>
			<stop  offset="0.6" style="stop-color:#3E4590"/>
			<stop  offset="0.76" style="stop-color:#44519F"/>
			<stop  offset="1" style="stop-color:#44519F"/>
		</linearGradient>
		<path style="fill:url(#SVGID_00000142861649120445211390000013994015785746889353_);" d="M199.7,40.8c1.5-1.5,2.6-3.2,3.5-5.2
			c0.8-2,1.3-4.1,1.3-6.3V0H198v13h-9.8c-2.2,0-4.3,0.4-6.3,1.3c-2,0.8-3.7,2-5.2,3.5c-0.8,0.8-1.5,1.7-2.2,2.6
			c-0.5,0.8-1,1.6-1.4,2.5c-0.8,1.9-1.3,4.1-1.3,6.3c0,2.3,0.4,4.3,1.3,6.3c0.8,2,2,3.7,3.5,5.2c1.5,1.5,3.2,2.7,5.2,3.5
			c2,0.8,4.1,1.3,6.3,1.3c2.2,0,4.3-0.4,6.3-1.3C196.5,43.4,198.3,42.3,199.7,40.8 M188.3,39.1c-1.4,0-2.6-0.3-3.8-0.8
			c-1.2-0.5-2.3-1.2-3.2-2.1c-0.9-0.9-1.6-1.9-2.1-3.2c-0.5-1.2-0.8-2.5-0.8-3.8c0-1.4,0.3-2.6,0.8-3.8c0.5-1.2,1.2-2.2,2.1-3.1
			c0.7-0.7,1.5-1.3,2.3-1.7c0.3-0.1,0.5-0.3,0.8-0.4c1.2-0.5,2.5-0.8,3.8-0.8h9.8v9.8c0,1.4-0.3,2.6-0.8,3.8
			c-0.5,1.2-1.2,2.3-2.1,3.2c-0.9,0.9-1.9,1.6-3.1,2.1C190.9,38.9,189.6,39.1,188.3,39.1z"/>
	</g>
	<g>
		<g>
			
				<linearGradient id="SVGID_00000147190240363838433550000009990356501359167158_" gradientUnits="userSpaceOnUse" x1="330.2962" y1="-371.69" x2="330.2962" y2="-357.2056" gradientTransform="matrix(1 0 0 -1 -247.5 -309.5295)">
				<stop  offset="0" style="stop-color:#35337B"/>
				<stop  offset="0.4" style="stop-color:#35337B"/>
				<stop  offset="0.6" style="stop-color:#3E4590"/>
				<stop  offset="0.76" style="stop-color:#44519F"/>
				<stop  offset="1" style="stop-color:#44519F"/>
			</linearGradient>
			<path style="fill:url(#SVGID_00000147190240363838433550000009990356501359167158_);" d="M85.5,51c-0.3,0-0.6,0.1-0.8,0.3
				c-0.2,0.2-0.5,0.4-0.7,0.7c-0.2,0.3-0.4,0.7-0.6,1.2v-0.4c0-0.6-0.1-1-0.4-1.3c-0.2-0.3-0.6-0.5-0.9-0.5c-0.3,0-0.6,0.1-1,0.4
				c-0.3,0.3-0.7,0.8-1,1.6v-1.8h-1.2v8h1.2v-4.6c0.3-0.7,0.5-1.2,0.8-1.6c0.3-0.4,0.5-0.6,0.8-0.6c0.1,0,0.2,0.1,0.4,0.2
				c0.1,0.1,0.2,0.5,0.2,1.2v5.5h1.1v-4.4c0.3-0.9,0.6-1.5,0.9-1.9c0.3-0.4,0.6-0.6,0.8-0.6c0.1,0,0.2,0,0.3,0.1
				c0.1,0.1,0.1,0.2,0.2,0.4c0,0.2,0,0.5,0,0.9v5.5h1.2v-6.1c0-0.9-0.1-1.5-0.4-1.7C86.1,51.1,85.8,51,85.5,51"/>
			
				<linearGradient id="SVGID_00000070837092749364425780000008155693168966642838_" gradientUnits="userSpaceOnUse" x1="339.5002" y1="-372.0082" x2="339.5002" y2="-357.1121" gradientTransform="matrix(1 0 0 -1 -247.5 -309.5295)">
				<stop  offset="0" style="stop-color:#35337B"/>
				<stop  offset="0.4" style="stop-color:#35337B"/>
				<stop  offset="0.6" style="stop-color:#3E4590"/>
				<stop  offset="0.76" style="stop-color:#44519F"/>
				<stop  offset="1" style="stop-color:#44519F"/>
			</linearGradient>
			<path style="fill:url(#SVGID_00000070837092749364425780000008155693168966642838_);" d="M92.3,51c-0.7,0-1.4,0.2-1.9,0.6
				c-0.6,0.4-1,0.9-1.4,1.6c-0.3,0.7-0.5,1.4-0.5,2.1c0,0.7,0.2,1.5,0.5,2.1c0.3,0.7,0.8,1.2,1.4,1.5c0.6,0.4,1.2,0.5,1.9,0.5
				c0.9,0,2-0.3,3-0.8v-1.2c-1,0.6-2,0.9-2.9,0.9c-0.5,0-0.9-0.1-1.3-0.4c-0.4-0.2-0.7-0.6-0.9-1c-0.2-0.5-0.4-1-0.4-1.5h5.5v-0.3
				c0-1.4-0.3-2.5-0.9-3.1C94,51.3,93.3,51,92.3,51 M94,54.4h-4c0.1-0.8,0.4-1.4,0.8-1.7c0.4-0.4,0.9-0.6,1.4-0.6
				c0.5,0,1,0.2,1.3,0.6c0.3,0.4,0.5,0.9,0.5,1.6L94,54.4L94,54.4z"/>
			
				<linearGradient id="SVGID_00000082345210354793322250000008078696213798100407_" gradientUnits="userSpaceOnUse" x1="348.5876" y1="-373.1869" x2="348.5876" y2="-352.4521" gradientTransform="matrix(1 0 0 -1 -247.5 -309.5295)">
				<stop  offset="0" style="stop-color:#35337B"/>
				<stop  offset="0.4" style="stop-color:#35337B"/>
				<stop  offset="0.6" style="stop-color:#3E4590"/>
				<stop  offset="0.76" style="stop-color:#44519F"/>
				<stop  offset="1" style="stop-color:#44519F"/>
			</linearGradient>
			<path style="fill:url(#SVGID_00000082345210354793322250000008078696213798100407_);" d="M103.2,51.2c-0.1,0-0.3,0-0.3,0
				c-0.5-0.1-0.9-0.1-1.2-0.1c-0.9,0-1.6,0.2-2.2,0.6c-0.6,0.4-1.1,1-1.4,1.7c-0.4,0.7-0.5,1.6-0.5,2.5c0,1.2,0.3,2.1,0.8,2.6
				c0.5,0.6,1.1,0.9,1.8,0.9c0.5,0,1-0.2,1.6-0.5c0.6-0.3,1.1-0.8,1.5-1.5v1.8h1.3V47.6h-1.3V51.2z M103.2,55.8
				c-0.4,0.7-0.8,1.3-1.4,1.7c-0.5,0.4-1,0.6-1.4,0.6c-0.4,0-0.7-0.2-1-0.6c-0.3-0.4-0.4-1-0.4-1.8c0-1.1,0.3-2,0.8-2.6
				c0.5-0.6,1.2-1,2.1-1c0.4,0,0.9,0.1,1.3,0.2V55.8z"/>
			
				<linearGradient id="SVGID_00000021803831562964634940000001173703977039850896_" gradientUnits="userSpaceOnUse" x1="357.483" y1="-371.6062" x2="357.483" y2="-357.5334" gradientTransform="matrix(1 0 0 -1 -247.5 -309.5295)">
				<stop  offset="0" style="stop-color:#35337B"/>
				<stop  offset="0.4" style="stop-color:#35337B"/>
				<stop  offset="0.6" style="stop-color:#3E4590"/>
				<stop  offset="0.76" style="stop-color:#44519F"/>
				<stop  offset="1" style="stop-color:#44519F"/>
			</linearGradient>
			<path style="fill:url(#SVGID_00000021803831562964634940000001173703977039850896_);" d="M110.6,51.2h-3.6v1.1h2.2v6.9h3.6v-1.1
				h-2.2V51.2z"/>
			
				<linearGradient id="SVGID_00000013905805706760037490000007271732246823930796_" gradientUnits="userSpaceOnUse" x1="357.472" y1="-359.366" x2="357.472" y2="-356.2221" gradientTransform="matrix(1 0 0 -1 -247.5 -309.5295)">
				<stop  offset="0" style="stop-color:#35337B"/>
				<stop  offset="0.4" style="stop-color:#35337B"/>
				<stop  offset="0.6" style="stop-color:#3E4590"/>
				<stop  offset="0.76" style="stop-color:#44519F"/>
				<stop  offset="1" style="stop-color:#44519F"/>
			</linearGradient>
			<path style="fill:url(#SVGID_00000013905805706760037490000007271732246823930796_);" d="M110,49.2c0.2,0,0.4-0.1,0.6-0.2
				c0.2-0.1,0.3-0.4,0.3-0.7c0-0.3-0.1-0.5-0.3-0.7c-0.2-0.1-0.4-0.2-0.6-0.2s-0.4,0.1-0.6,0.2c-0.2,0.1-0.3,0.4-0.3,0.7
				c0,0.3,0.1,0.5,0.3,0.7C109.6,49.1,109.8,49.2,110,49.2z"/>
			
				<linearGradient id="SVGID_00000070817240800674880380000003333195722229323945_" gradientUnits="userSpaceOnUse" x1="367.14" y1="-371.9717" x2="367.14" y2="-357.1504" gradientTransform="matrix(1 0 0 -1 -247.5 -309.5295)">
				<stop  offset="0" style="stop-color:#35337B"/>
				<stop  offset="0.4" style="stop-color:#35337B"/>
				<stop  offset="0.6" style="stop-color:#3E4590"/>
				<stop  offset="0.76" style="stop-color:#44519F"/>
				<stop  offset="1" style="stop-color:#44519F"/>
			</linearGradient>
			<path style="fill:url(#SVGID_00000070817240800674880380000003333195722229323945_);" d="M117.5,52.2c-0.8,0.8-1.2,1.8-1.2,3
				c0,0.8,0.2,1.5,0.5,2.2c0.4,0.6,0.8,1.1,1.5,1.5c0.6,0.4,1.3,0.6,2.1,0.6c0.8,0,1.7-0.1,2.6-0.5v-1.3c-0.8,0.3-1.3,0.4-1.6,0.4
				c-0.3,0-0.6,0.1-0.9,0.1c-1,0-1.7-0.3-2.1-1c-0.4-0.6-0.7-1.3-0.7-2.1c0-0.5,0.1-1.1,0.4-1.6c0.2-0.5,0.6-0.9,1-1.1
				c0.4-0.2,0.9-0.4,1.4-0.4c0.7,0,1.6,0.2,2.5,0.6v-1.3c-0.9-0.3-1.8-0.5-2.6-0.5C119.2,51,118.3,51.4,117.5,52.2"/>
			
				<linearGradient id="SVGID_00000050622052205745793190000015673468186906886283_" gradientUnits="userSpaceOnUse" x1="376.184" y1="-371.9519" x2="376.184" y2="-357.2803" gradientTransform="matrix(1 0 0 -1 -247.5 -309.5295)">
				<stop  offset="0" style="stop-color:#35337B"/>
				<stop  offset="0.4" style="stop-color:#35337B"/>
				<stop  offset="0.6" style="stop-color:#3E4590"/>
				<stop  offset="0.76" style="stop-color:#44519F"/>
				<stop  offset="1" style="stop-color:#44519F"/>
			</linearGradient>
			<path style="fill:url(#SVGID_00000050622052205745793190000015673468186906886283_);" d="M132,51.2h-1.3c-0.1,0-0.3,0-0.4,0
				c-0.5-0.1-0.9-0.1-1.2-0.1c-0.9,0-1.6,0.2-2.2,0.6c-0.6,0.4-1.1,1-1.4,1.7c-0.4,0.7-0.5,1.6-0.5,2.5c0,1.2,0.3,2.1,0.8,2.6
				c0.5,0.6,1.1,0.9,1.8,0.9c0.5,0,1-0.2,1.6-0.5c0.6-0.3,1.1-0.8,1.5-1.5c0.1,0.8,0.1,1.4,0.2,1.8h1.4c-0.2-0.6-0.3-1.4-0.3-2.4
				V51.2z M130.7,55.8c-0.4,0.7-0.9,1.3-1.4,1.7c-0.5,0.4-1,0.6-1.4,0.6c-0.4,0-0.7-0.2-1-0.6c-0.3-0.4-0.4-1-0.4-1.8
				c0-1.1,0.3-2,0.8-2.6c0.5-0.6,1.2-1,2.1-1c0.4,0,0.9,0.1,1.3,0.2V55.8z"/>
			
				<linearGradient id="SVGID_00000015318778743214733390000016010121195537622192_" gradientUnits="userSpaceOnUse" x1="384.973" y1="-372.8832" x2="384.973" y2="-352.5413" gradientTransform="matrix(1 0 0 -1 -247.5 -309.5295)">
				<stop  offset="0" style="stop-color:#35337B"/>
				<stop  offset="0.4" style="stop-color:#35337B"/>
				<stop  offset="0.6" style="stop-color:#3E4590"/>
				<stop  offset="0.76" style="stop-color:#44519F"/>
				<stop  offset="1" style="stop-color:#44519F"/>
			</linearGradient>
			<path style="fill:url(#SVGID_00000015318778743214733390000016010121195537622192_);" d="M138.1,47.6h-3.7v1.1h2.4v10.5h3.8v-1.1
				h-2.5V47.6z"/>
		</g>
		<g>
			
				<linearGradient id="SVGID_00000002347154056391027710000009671016855265931425_" gradientUnits="userSpaceOnUse" x1="403.579" y1="-373.1869" x2="403.579" y2="-352.4521" gradientTransform="matrix(1 0 0 -1 -247.5 -309.5295)">
				<stop  offset="0" style="stop-color:#35337B"/>
				<stop  offset="0.4" style="stop-color:#35337B"/>
				<stop  offset="0.6" style="stop-color:#3E4590"/>
				<stop  offset="0.76" style="stop-color:#44519F"/>
				<stop  offset="1" style="stop-color:#44519F"/>
			</linearGradient>
			<path style="fill:url(#SVGID_00000002347154056391027710000009671016855265931425_);" d="M158.2,51.2c-0.2,0-0.3,0-0.3,0
				c-0.5-0.1-0.9-0.1-1.2-0.1c-0.9,0-1.6,0.2-2.2,0.6c-0.6,0.4-1.1,1-1.4,1.7c-0.4,0.7-0.5,1.6-0.5,2.5c0,1.2,0.3,2.1,0.8,2.6
				c0.5,0.6,1.1,0.9,1.8,0.9c0.5,0,1-0.2,1.6-0.5c0.6-0.3,1.1-0.8,1.5-1.5v1.8h1.3V47.6h-1.3V51.2z M158.2,55.8
				c-0.4,0.7-0.9,1.3-1.4,1.7c-0.5,0.4-1,0.6-1.4,0.6c-0.4,0-0.7-0.2-1-0.6c-0.3-0.4-0.4-1-0.4-1.8c0-1.1,0.3-2,0.8-2.6
				c0.5-0.6,1.2-1,2.1-1c0.4,0,0.9,0.1,1.3,0.2V55.8z"/>
			
				<linearGradient id="SVGID_00000030446652307105810790000003000270428096783538_" gradientUnits="userSpaceOnUse" x1="412.847" y1="-372.0082" x2="412.847" y2="-357.1121" gradientTransform="matrix(1 0 0 -1 -247.5 -309.5295)">
				<stop  offset="0" style="stop-color:#35337B"/>
				<stop  offset="0.4" style="stop-color:#35337B"/>
				<stop  offset="0.6" style="stop-color:#3E4590"/>
				<stop  offset="0.76" style="stop-color:#44519F"/>
				<stop  offset="1" style="stop-color:#44519F"/>
			</linearGradient>
			<path style="fill:url(#SVGID_00000030446652307105810790000003000270428096783538_);" d="M165.7,51c-0.7,0-1.4,0.2-1.9,0.6
				c-0.6,0.4-1,0.9-1.4,1.6c-0.3,0.7-0.5,1.4-0.5,2.1c0,0.7,0.2,1.5,0.5,2.1c0.3,0.7,0.8,1.2,1.4,1.5c0.6,0.4,1.2,0.5,1.9,0.5
				c0.9,0,2-0.3,3-0.8v-1.2c-1,0.6-2,0.9-2.9,0.9c-0.5,0-0.9-0.1-1.3-0.4c-0.4-0.2-0.7-0.6-0.9-1c-0.2-0.5-0.4-1-0.4-1.5h5.5v-0.3
				c0-1.4-0.3-2.5-0.9-3.1C167.4,51.3,166.6,51,165.7,51 M167.4,54.4h-4c0.1-0.8,0.4-1.4,0.8-1.7c0.4-0.4,0.9-0.6,1.4-0.6
				c0.5,0,1,0.2,1.3,0.6c0.3,0.4,0.5,0.9,0.5,1.6L167.4,54.4L167.4,54.4z"/>
			
				<linearGradient id="SVGID_00000140701254467386953820000009382483166938718890_" gradientUnits="userSpaceOnUse" x1="422.0355" y1="-371.6062" x2="422.0355" y2="-357.5334" gradientTransform="matrix(1 0 0 -1 -247.5 -309.5295)">
				<stop  offset="0" style="stop-color:#35337B"/>
				<stop  offset="0.4" style="stop-color:#35337B"/>
				<stop  offset="0.6" style="stop-color:#3E4590"/>
				<stop  offset="0.76" style="stop-color:#44519F"/>
				<stop  offset="1" style="stop-color:#44519F"/>
			</linearGradient>
			<path style="fill:url(#SVGID_00000140701254467386953820000009382483166938718890_);" d="M174.6,57.5l-2.7-6.3h-1.5l3.5,8h1.4
				l3.5-8h-1.3L174.6,57.5z"/>
			
				<linearGradient id="SVGID_00000039113552891750333680000009589214489550013346_" gradientUnits="userSpaceOnUse" x1="430.83" y1="-359.366" x2="430.83" y2="-356.2221" gradientTransform="matrix(1 0 0 -1 -247.5 -309.5295)">
				<stop  offset="0" style="stop-color:#35337B"/>
				<stop  offset="0.4" style="stop-color:#35337B"/>
				<stop  offset="0.6" style="stop-color:#3E4590"/>
				<stop  offset="0.76" style="stop-color:#44519F"/>
				<stop  offset="1" style="stop-color:#44519F"/>
			</linearGradient>
			<path style="fill:url(#SVGID_00000039113552891750333680000009589214489550013346_);" d="M183.3,49.2c0.2,0,0.4-0.1,0.6-0.2
				c0.2-0.1,0.3-0.4,0.3-0.7c0-0.3-0.1-0.5-0.3-0.7c-0.2-0.1-0.4-0.2-0.6-0.2s-0.4,0.1-0.6,0.2c-0.2,0.1-0.3,0.4-0.3,0.7
				c0,0.3,0.1,0.5,0.3,0.7C182.9,49.1,183.1,49.2,183.3,49.2z"/>
			
				<linearGradient id="SVGID_00000068660529737529169090000012240751865326948499_" gradientUnits="userSpaceOnUse" x1="430.835" y1="-371.6062" x2="430.835" y2="-357.5334" gradientTransform="matrix(1 0 0 -1 -247.5 -309.5295)">
				<stop  offset="0" style="stop-color:#35337B"/>
				<stop  offset="0.4" style="stop-color:#35337B"/>
				<stop  offset="0.6" style="stop-color:#3E4590"/>
				<stop  offset="0.76" style="stop-color:#44519F"/>
				<stop  offset="1" style="stop-color:#44519F"/>
			</linearGradient>
			<path style="fill:url(#SVGID_00000068660529737529169090000012240751865326948499_);" d="M184,51.2h-3.6v1.1h2.2v6.9h3.6v-1.1
				H184V51.2z"/>
			
				<linearGradient id="SVGID_00000058580022963138755960000007004594195385325699_" gradientUnits="userSpaceOnUse" x1="440.497" y1="-371.9717" x2="440.497" y2="-357.1504" gradientTransform="matrix(1 0 0 -1 -247.5 -309.5295)">
				<stop  offset="0" style="stop-color:#35337B"/>
				<stop  offset="0.4" style="stop-color:#35337B"/>
				<stop  offset="0.6" style="stop-color:#3E4590"/>
				<stop  offset="0.76" style="stop-color:#44519F"/>
				<stop  offset="1" style="stop-color:#44519F"/>
			</linearGradient>
			<path style="fill:url(#SVGID_00000058580022963138755960000007004594195385325699_);" d="M190.9,52.2c-0.8,0.8-1.2,1.8-1.2,3
				c0,0.8,0.2,1.5,0.5,2.2c0.4,0.6,0.8,1.1,1.5,1.5c0.6,0.4,1.3,0.6,2.1,0.6s1.7-0.1,2.6-0.5v-1.3c-0.8,0.3-1.3,0.4-1.6,0.4
				c-0.3,0-0.6,0.1-0.9,0.1c-1,0-1.7-0.3-2.1-1c-0.4-0.6-0.7-1.3-0.7-2.1c0-0.5,0.1-1.1,0.4-1.6c0.2-0.5,0.6-0.9,1-1.1
				c0.4-0.2,0.9-0.4,1.4-0.4c0.7,0,1.6,0.2,2.5,0.6v-1.3c-0.9-0.3-1.8-0.5-2.6-0.5C192.6,51,191.6,51.4,190.9,52.2"/>
			
				<linearGradient id="SVGID_00000098913490439638654220000014300764744771856529_" gradientUnits="userSpaceOnUse" x1="449.5885" y1="-372.3055" x2="449.5885" y2="-356.7411" gradientTransform="matrix(1 0 0 -1 -247.5 -309.5295)">
				<stop  offset="0" style="stop-color:#35337B"/>
				<stop  offset="0.4" style="stop-color:#35337B"/>
				<stop  offset="0.6" style="stop-color:#3E4590"/>
				<stop  offset="0.76" style="stop-color:#44519F"/>
				<stop  offset="1" style="stop-color:#44519F"/>
			</linearGradient>
			<path style="fill:url(#SVGID_00000098913490439638654220000014300764744771856529_);" d="M202.4,50.8c-0.7,0-1.4,0.2-2,0.6
				c-0.6,0.4-1.1,0.9-1.4,1.6c-0.3,0.7-0.5,1.4-0.5,2.2c0,0.8,0.2,1.5,0.5,2.2c0.4,0.7,0.8,1.2,1.4,1.6c0.6,0.4,1.3,0.6,2,0.6
				c1,0,2-0.3,3.2-0.8v-1.3c-1.1,0.6-2.1,0.9-3,0.9c-0.5,0-0.9-0.1-1.3-0.4c-0.4-0.2-0.7-0.6-1-1.1c-0.2-0.5-0.4-1-0.4-1.6h5.8v-0.3
				c0-1.5-0.3-2.6-0.9-3.3C204.2,51.1,203.4,50.7,202.4,50.8 M204.2,54.4H200c0.2-0.8,0.4-1.4,0.9-1.8c0.4-0.4,0.9-0.6,1.5-0.6
				s1,0.2,1.3,0.6c0.3,0.4,0.5,0.9,0.5,1.6L204.2,54.4L204.2,54.4z"/>
			
				<linearGradient id="SVGID_00000028314364862898377820000002346851871696125332_" gradientUnits="userSpaceOnUse" x1="458.7995" y1="-371.9793" x2="458.7995" y2="-357.1206" gradientTransform="matrix(1 0 0 -1 -247.5 -309.5295)">
				<stop  offset="0" style="stop-color:#35337B"/>
				<stop  offset="0.4" style="stop-color:#35337B"/>
				<stop  offset="0.6" style="stop-color:#3E4590"/>
				<stop  offset="0.76" style="stop-color:#44519F"/>
				<stop  offset="1" style="stop-color:#44519F"/>
			</linearGradient>
			<path style="fill:url(#SVGID_00000028314364862898377820000002346851871696125332_);" d="M212.3,54.7l-0.9-0.3
				c-0.6-0.2-1.1-0.4-1.3-0.6c-0.3-0.2-0.4-0.4-0.4-0.7c0-0.3,0.2-0.5,0.5-0.7c0.3-0.2,0.8-0.3,1.3-0.3c0.8,0,1.6,0.2,2.5,0.5v-1.2
				c-0.8-0.2-1.6-0.4-2.4-0.4c-1.2,0-2,0.2-2.5,0.6c-0.5,0.4-0.8,1-0.8,1.6c0,0.5,0.1,0.9,0.4,1.2c0.3,0.3,0.9,0.7,1.9,1.1l0.9,0.4
				l0.5,0.2c0.6,0.2,0.9,0.4,1,0.6c0.1,0.1,0.2,0.3,0.2,0.6c0,0.3-0.1,0.6-0.4,0.8c-0.3,0.2-0.8,0.3-1.4,0.3c-0.4,0-0.9-0.1-1.5-0.2
				c-0.6-0.1-1.2-0.4-1.7-0.7v1.4c1.1,0.4,2.1,0.6,3.2,0.6c1.2,0,2-0.2,2.6-0.7c0.5-0.4,0.8-1,0.8-1.7c0-0.5-0.2-1-0.5-1.3
				C213.7,55.4,213.1,55,212.3,54.7"/>
		</g>
	</g>
	
		<linearGradient id="SVGID_00000057109225087961702610000014332862018284616105_" gradientUnits="userSpaceOnUse" x1="484.7075" y1="-389.8969" x2="484.7075" y2="-285.9795" gradientTransform="matrix(1 0 0 -1 -247.5 -309.5295)">
		<stop  offset="0" style="stop-color:#35337B"/>
		<stop  offset="0.4" style="stop-color:#35337B"/>
		<stop  offset="0.6" style="stop-color:#3E4590"/>
		<stop  offset="0.76" style="stop-color:#44519F"/>
		<stop  offset="1" style="stop-color:#44519F"/>
	</linearGradient>
	<path style="fill:url(#SVGID_00000057109225087961702610000014332862018284616105_);" d="M264.8,13.8H253V2c0-1.1-0.9-2-2-2h-27.7
		c-1.1,0-2,0.9-2,2v11.8h-11.8c-1.1,0-2,0.9-2,2v27.7c0,1.1,0.9,2,2,2h11.8v11.8c0,1.1,0.9,2,2,2h27.7c1.1,0,2-0.9,2-2V45.4h11.8
		c1.1,0,2-0.9,2-2V15.7C266.8,14.7,265.9,13.8,264.8,13.8 M237.2,4h11.9v9.8c-4.7,0.2-8.3,3.1-8.3,6.7c0,1,0.3,1.9,0.8,2.7
		c1.5-3.1,4.4-5.2,7.5-5.5c-0.1,1.7-1.2,6.6-9.9,8.7c-3.1-10.6-11.1-12.3-13.9-12.6V4H237.2L237.2,4z M211.6,29.6V17.7h9.8
		c0.2,4.7,3.1,8.3,6.7,8.3c1,0,1.9-0.3,2.7-0.8c-3.1-1.5-5.2-4.4-5.5-7.5c1.8,0.2,6.8,1.5,9.4,9.7c-11.2,3-13,11.2-13.3,14.1h-9.9
		L211.6,29.6L211.6,29.6z M237.2,55.3h-11.9v-9.8c4.7-0.2,8.3-3.1,8.3-6.7c0-1-0.3-1.9-0.8-2.7c-1.5,3.1-4.4,5.2-7.5,5.5
		c0.2-1.8,1.6-7.1,10.5-9.6c3,12.6,11,13.6,13.3,13.6v9.8L237.2,55.3L237.2,55.3z M262.9,29.6v11.9H253c-0.2-4.7-3.1-8.3-6.7-8.3
		c-1,0-1.9,0.3-2.7,0.8c3.1,1.5,5.2,4.4,5.5,7.5c-1.8-0.1-6.9-1.3-8.9-10.7c11.9-3.1,12.8-10.9,12.9-13.1h9.8L262.9,29.6L262.9,29.6
		z"/>
	<g>
		
			<linearGradient id="SVGID_00000049191543319334312880000010457668724946290838_" gradientUnits="userSpaceOnUse" x1="280.5" y1="12.34" x2="280.5" y2="3.72">
			<stop  offset="0" style="stop-color:#233579"/>
			<stop  offset="0.65" style="stop-color:#233579"/>
			<stop  offset="0.79" style="stop-color:#2E4289"/>
			<stop  offset="1" style="stop-color:#3C539C"/>
		</linearGradient>
		<path style="fill:url(#SVGID_00000049191543319334312880000010457668724946290838_);" d="M278.8,5.4h0.9c0.5,0,0.8,0.1,1,0.2
			c0.2,0.2,0.3,0.4,0.3,0.8c0,0.4-0.1,0.7-0.3,0.9c-0.2,0.2-0.5,0.3-1,0.3h-0.9V5.4z M276.6,3.7v8.6h2.2V9.1h0.6
			c0.4,0,0.6,0.1,0.9,0.2c0.2,0.1,0.4,0.5,0.6,0.9l1,2.1h2.4l-1.2-2.4c-0.2-0.5-0.5-0.9-0.7-1.1c-0.2-0.2-0.5-0.4-0.8-0.5
			c0.6-0.2,1-0.4,1.2-0.8c0.3-0.4,0.4-0.8,0.4-1.4c0-0.8-0.3-1.4-0.8-1.8c-0.5-0.4-1.3-0.6-2.5-0.6L276.6,3.7L276.6,3.7z"/>
		
			<linearGradient id="SVGID_00000070811608666342230110000015163062500341882031_" gradientUnits="userSpaceOnUse" x1="280.23" y1="16.46" x2="280.23" y2="0">
			<stop  offset="0" style="stop-color:#233579"/>
			<stop  offset="0.65" style="stop-color:#233579"/>
			<stop  offset="0.79" style="stop-color:#2E4289"/>
			<stop  offset="1" style="stop-color:#3C539C"/>
		</linearGradient>
		<path style="fill:url(#SVGID_00000070811608666342230110000015163062500341882031_);" d="M273.7,8.2c0-3.6,2.9-6.6,6.6-6.6
			c3.6,0,6.6,2.9,6.6,6.6s-2.9,6.6-6.6,6.6C276.6,14.8,273.7,11.9,273.7,8.2z M272,8.2c0,4.5,3.7,8.2,8.2,8.2c4.5,0,8.2-3.7,8.2-8.2
			S284.8,0,280.2,0C275.7,0,272,3.7,272,8.2z"/>
	</g>
</g>
</svg>
