<?xml version="1.0" encoding="UTF-8"?>
<svg id="Layer_1" xmlns="http://www.w3.org/2000/svg" version="1.1" viewBox="0 0 1080 1080">
  <!-- Generator: Adobe Illustrator 30.0.0, SVG Export Plug-In . SVG Version: 2.1.1 Build 123)  -->
  <defs>
    <style>
      .st0 {
        fill: #1b3a57;
      }
    </style>
  </defs>
  <g>
    <path class="st0" d="M817.8,496.9v78h-109.7c-1.6,0-3.3,0-4.9-.1-4.2-.2-8.2-1.6-11.6-4.1-32.5-23.3-60.5-52.6-82.2-86.3-2.2-3.5-3.5-7.5-3.5-11.6,0,0,0,0,0,0v-93.2h78v93.2c0,13.4,10.8,24.2,24.2,24.2h109.7Z"/>
    <path class="st0" d="M680.3,612.8c-21.7-33.7-49.6-63-82.2-86.3-3.4-2.4-7.5-3.9-11.6-4-1.6,0-3.3-.1-4.9-.1h-109.7v77.8h109.7c12.5,0,22.9,9.6,24.1,21.8,0,.8.1,1.6.1,2.5v126.6c0,.8,0,1.6,0,2.5-.4,9.9-6.8,15.4-10.5,17.7-3.3,2.1-12.1,6.5-22.9,2.1-48.1-19.8-165.5-76.3-217.1-174.3-20-38.1-20-83.6,0-121.7,45-85.6,139.4-139.4,197.3-165.7v-84.8c-58,22.6-200.3,88.7-266.3,214.2-32,60.8-32,133.5,0,194.3,26.3,49.9,94.5,143.6,256.5,210.2,12.5,5.2,25.8,7.7,39,7.7,19.3,0,38.6-5.5,55.4-16.1,28-17.8,45-46.9,46.6-79.8.1-2,.1-4.1.1-6.2v-126.6h0v-.2c0-4.1-1.3-8.1-3.5-11.5Z"/>
  </g>
  <path class="st0" d="M431.9,850.8c-10.4,0-19-7-19-19s8.6-19,19-19,19,7,19,19-8.6,19-19,19ZM432,848.5c9.2,0,16.6-5.9,16.6-16.7s-7.4-16.7-16.6-16.7-16.7,5.8-16.7,16.7,7.4,16.7,16.7,16.7ZM426.6,840.6c-.5,0-.7-.3-.7-.7v-16.9c0-.5.3-.7.7-.7h6.3c3.9,0,6.5,1.9,6.5,5.7s-2,5.1-5.3,5.4l5.1,6.4c.4.6.2.9-.5.9h-1c-.4,0-.7,0-.9-.5l-5.4-6.8h-3.4v6.5c0,.5-.3.7-.7.7h-.7ZM428,831.3h4.8c2.8,0,4.3-1.2,4.3-3.4s-1.6-3.5-4.3-3.5h-4.8v6.9Z"/>
</svg>