<svg version="1.2" xmlns="http://www.w3.org/2000/svg" viewBox="0 0 1080 1080" width="1080" height="1080">
	<style>
		.s0 { display: none;fill: #58595b } 
		.s1 { fill: #ffffff } 
	</style>
	<path fill-rule="evenodd" class="s0" d="m0 0h1080v1080h-1080z"/>
	<g>
		<g>
			<path class="s1" d="m817.8 496.9v78h-109.7c-1.6 0-3.3 0-4.9-0.1-4.2-0.2-8.2-1.6-11.6-4.1-32.5-23.3-60.5-52.6-82.2-86.3-2.2-3.5-3.5-7.5-3.5-11.6v-93.2h78v93.2c0 13.4 10.8 24.2 24.2 24.2h109.7z"/>
			<path class="s1" d="m680.3 612.8c-21.7-33.7-49.6-63-82.2-86.3-3.4-2.4-7.5-3.9-11.6-4-1.6 0-3.3-0.1-4.9-0.1h-109.7v77.8h109.7c12.5 0 22.9 9.6 24.1 21.8 0 0.8 0.1 1.6 0.1 2.5v126.6c0 0.8 0 1.6 0 2.5-0.4 9.9-6.8 15.4-10.5 17.7-3.3 2.1-12.1 6.5-22.9 2.1-48.1-19.8-165.5-76.3-217.1-174.3-20-38.1-20-83.6 0-121.7 45-85.6 139.4-139.4 197.3-165.7v-84.8c-58 22.6-200.3 88.7-266.3 214.2-32 60.8-32 133.5 0 194.3 26.3 49.9 94.5 143.6 256.5 210.2 12.5 5.2 25.8 7.7 39 7.7 19.3 0 38.6-5.5 55.4-16.1 28-17.8 45-46.9 46.6-79.8 0.1-2 0.1-4.1 0.1-6.2v-126.6-0.2c0-4.1-1.3-8.1-3.5-11.5z"/>
		</g>
		<path class="s1" d="m431.9 850.8c-10.4 0-19-7-19-19 0-12 8.6-19 19-19 10.4 0 19 7 19 19 0 12-8.6 19-19 19zm0.1-2.3c9.2 0 16.6-5.9 16.6-16.7 0-10.8-7.4-16.7-16.6-16.7-9.2 0-16.7 5.8-16.7 16.7 0 10.9 7.4 16.7 16.7 16.7zm-5.4-7.9c-0.5 0-0.7-0.3-0.7-0.7v-16.9c0-0.5 0.3-0.7 0.7-0.7h6.3c3.9 0 6.5 1.9 6.5 5.7 0 3.8-2 5.1-5.3 5.4l5.1 6.4c0.4 0.6 0.2 0.9-0.5 0.9h-1c-0.4 0-0.7 0-0.9-0.5l-5.4-6.8h-3.4v6.5c0 0.5-0.3 0.7-0.7 0.7zm1.4-9.3h4.8c2.8 0 4.3-1.2 4.3-3.4 0-2.2-1.6-3.5-4.3-3.5h-4.8z"/>
	</g>
</svg>