<?xml version="1.0" encoding="UTF-8"?>
<svg id="Layer_1" xmlns="http://www.w3.org/2000/svg" version="1.1" viewBox="0 0 1080 1080">
  <!-- Generator: Adobe Illustrator 30.0.0, SVG Export Plug-In . SVG Version: 2.1.1 Build 123)  -->
  <defs>
    <style>
      .st0 {
        fill: #1b3a57;
      }

      .st1 {
        fill: #85c1af;
      }
    </style>
  </defs>
  <g>
    <path class="st0" d="M483.9,550.7c-19.9,0-36.3-11.4-36.3-33.6v-32.8c0-22.2,15.8-33.4,35.3-33.4s23,3.4,32.1,9.6c.9.5.9,1.5.4,2.2l-4.6,6.4c-.5.8-1.2.8-2,.4-7.6-5-16.5-7.7-25.9-7.7-14.4,0-23.8,8.1-23.8,22.9v32.5c0,14.8,10.3,22.6,24.8,22.6s17.5-3,22.9-7.6v-25.2h-22.2c-.9,0-1.5-.5-1.5-1.5v-7.6c0-.9.5-1.5,1.5-1.5h32.1c.9,0,1.5.5,1.5,1.5v37.4c0,.8-.1,1.4-.5,1.8-8,8.3-19.6,13.7-33.7,13.7Z"/>
    <path class="st0" d="M567.1,513.6c-.9,0-1.5-.5-1.5-1.5v-7.3c0-.9.5-1.5,1.5-1.5h33.9c.9,0,1.5.5,1.5,1.5v7.3c0,.9-.5,1.5-1.5,1.5h-33.9Z"/>
    <path class="st0" d="M686.3,550.7c-19.9,0-35.6-11.2-35.6-33.4v-32.8c0-22.3,15.8-33.6,35.3-33.6s20.4,3.2,28.8,9.5c.8.5.8,1.2.3,2l-4.3,6.4c-.5.8-1.4.8-2.3.3-6.6-4.9-14.9-7.3-22.6-7.3-15.3,0-23.7,8.9-23.7,22.7v32.6c0,13.8,8.5,22.7,23.8,22.7s17.7-2.8,24.9-8.4c.7-.7,1.5-.5,2,.4l4.5,6.2c.5.9.5,1.6-.4,2.3-8.7,7.2-19.9,10.3-30.7,10.3Z"/>
    <path class="st0" d="M755.2,477.7c16.7,0,26.9,8.8,26.9,26.3v40.6c0,.8-.4,1.5-1.2,1.8-6.4,2.3-16,4.3-26.1,4.3-15.2,0-29.1-6.1-29.1-22.2s11.8-21.5,29.1-21.5,11.6.8,16.2,1.6v-4.3c0-11-4.5-16.5-16.2-16.5s-14.5,2.2-19.2,5c-.8.5-1.5.4-2-.4l-3.9-5.7c-.4-.8-.5-1.4,0-1.9,6.4-4.3,15.2-7,25.6-7ZM754.8,540.8c6.1,0,12.2-1.2,16.2-2.4v-20.3c-4.3-.8-10.7-1.6-16.2-1.6-12.3,0-18,4.6-18,12.1s7.6,12.3,18,12.3Z"/>
    <path class="st0" d="M801.2,549.2c-.9,0-1.5-.5-1.5-1.5v-63.2c0-.8.3-1.5,1.1-1.8,6.8-3.2,15.2-5,23.2-5s9.1.4,13.9,1.1c.9.1,1.4.8,1.4,1.8v6.6c0,1.1-.5,1.6-1.6,1.4-3.8-.5-8.1-.9-12.2-.9s-11,1.2-14.6,2.7v57.4c0,.9-.5,1.5-1.6,1.5h-8Z"/>
    <path class="st0" d="M903.7,518c0,1.1-.5,1.6-1.5,1.6h-44.3v5.7c0,10.2,7.6,15.6,17.6,15.6s15.7-3.7,20.7-7.6c.8-.5,1.6-.4,2.2.4l3.9,5.1c.7.8.5,1.5-.3,2.2-6.8,5.7-15.4,9.7-26.8,9.7s-28.6-8.4-28.6-25.5v-20.6c0-18.6,13.8-26.9,28.7-26.9s28.3,8.4,28.3,26.9v13.3ZM875.4,487.8c-10.2,0-17.5,5.3-17.5,16.9v5.7h34.9v-5.7c0-11.5-7.6-16.9-17.5-16.9Z"/>
  </g>
  <g>
    <path class="st1" d="M448.2,627.6c-.4,0-.6-.2-.6-.6v-50.9c0-.4.2-.6.6-.6h3.6c.3,0,.6.1.7.4l13.6,24c1.7,3.1,4,7.4,5.5,10.3h0c1.5-2.8,3.7-7,5.5-10.1l13.6-24.2c.1-.3.4-.4.7-.4h3.5c.4,0,.7.2.7.6v50.9c0,.4-.3.6-.7.6h-2.8c-.4,0-.7-.2-.7-.6v-29.1c0-5.2.1-11,.2-16.2h0c-2,3.9-4.3,8-6.7,12.3l-11.4,20.6c-.1.2-.4.4-.7.4h-2.3c-.3,0-.6-.1-.7-.4l-11.5-20.6-6.7-12.4h0c0,5.3.2,11.2.2,16.4v29c0,.4-.2.6-.6.6h-2.8Z"/>
    <path class="st1" d="M536.2,610.3c0,.4-.3.6-.7.6h-25.1v4.1c0,6.3,5,10,11,10s9.2-2.3,11.9-4.7c.4-.2.7-.2.9.1l1.3,1.7c.3.3.3.6,0,.9-3.4,2.9-7.9,5.5-14.1,5.5s-14.9-4.8-14.9-13.5v-11.5c0-9.3,6.6-14.1,14.9-14.1s14.8,4.8,14.8,14.1v6.8ZM521.4,592.9c-6.6,0-11,3.6-11,10.6v4.2h22v-4.2c0-6.9-4.6-10.6-11-10.6Z"/>
    <path class="st1" d="M569.7,576.1c0-.4.2-.6.6-.6h2.6c.4,0,.7.2.7.6v49c0,.3-.1.6-.5.7-4,1.6-8.9,2.6-13.6,2.6-9.5,0-15.8-4.8-15.8-15.7v-7.9c0-10.3,6.1-15.6,15.5-15.6s7.6,1.2,10.5,2.9v-16.1ZM559.5,624.9c3.6,0,7.3-.7,10.1-1.7v-27.3c-2.8-1.9-6.4-3.1-10.2-3.1-7.6,0-11.9,3.6-11.9,12.1v7.9c0,8.7,4.4,12.2,11.9,12.2Z"/>
    <path class="st1" d="M586.2,582.4c-1.5,0-2.6-1.1-2.6-2.5s1.1-2.6,2.6-2.6,2.6,1.1,2.6,2.6-1.1,2.5-2.6,2.5ZM584.8,627.6c-.4,0-.6-.2-.6-.6v-36.3c0-.4.2-.7.6-.7h2.7c.4,0,.6.2.6.7v36.3c0,.4-.2.6-.6.6h-2.7Z"/>
    <path class="st1" d="M612.4,628.4c-9.3,0-14.9-6-14.9-13.8v-11.6c0-7.8,5.6-13.8,14.9-13.8s8.2,1.3,11.7,3.8c.4.3.4.6.2.9l-1.2,1.9c-.2.2-.5.4-.9.1-3.1-2.1-6.2-3.1-9.8-3.1-7.1,0-11.1,4.4-11.1,10.2v11.6c0,5.8,4,10.3,11.1,10.3s7.4-1.2,10.8-3.7c.4-.3.7-.2.9,0l1.2,1.8c.2.4.2.7,0,.9-3.8,2.9-7.8,4.4-12.8,4.4Z"/>
    <path class="st1" d="M645.5,589.3c9,0,13.9,5,13.9,13.8v22.1c0,.3-.1.6-.5.7-3.2,1.2-8.2,2.5-13.6,2.5-8.4,0-15.3-3.9-15.3-11.8s5.9-11.5,15.3-11.5,7.4.7,10.2,1.2v-3.1c0-6.5-2.8-10.3-10.2-10.3s-8.5,1.3-11.1,3c-.3.2-.6.1-.8-.1l-1.2-1.9c-.2-.3-.2-.6,0-.7,3.2-2.3,7.9-3.8,13.3-3.8ZM645.4,624.9c4.1,0,7.6-.9,10.2-1.7v-13.6c-2.7-.6-6.6-1.1-10.2-1.1-7.6,0-11.4,2.9-11.4,8.1s4.7,8.3,11.4,8.3Z"/>
    <path class="st1" d="M679.4,628.4c-6.2,0-10-4-10-12.7v-39.6c0-.4.2-.6.6-.6h2.6c.4,0,.7.2.7.6v39.9c0,6.3,2.3,8.9,6.4,8.9s2.5-.1,3.8-.3c.4,0,.6.1.6.6v2.3c0,.4-.1.7-.5.7-1.2.1-3,.3-4.2.3Z"/>
    <path class="st1" d="M723.2,628.4c-11.1,0-18.3-6.7-18.3-17.6v-18.4c0-10.9,7.3-17.6,18.1-17.6s11,1.8,15.4,5.3c.4.2.4.5.1.8l-1.5,2.1c-.2.3-.5.4-.9,0-3.9-2.9-8.6-4.5-13.3-4.5-9.2,0-14,5.8-14,13.8v18.4c0,8.2,4.9,13.8,14.1,13.8s10.3-1.7,14.4-5.2c.4-.3.7-.2.9.1l1.5,2.1c.2.3.2.6-.1.9-4.7,4-10.6,5.8-16.4,5.8Z"/>
    <path class="st1" d="M761.5,628.4c-9.8,0-15.5-5.9-15.5-14v-11.1c0-8,5.7-14.1,15.5-14.1s15.5,6,15.5,14.1v11.1c0,8.1-5.6,14-15.5,14ZM761.5,624.9c7.8,0,11.7-4.4,11.7-10.5v-11.1c0-6-3.9-10.5-11.7-10.5s-11.6,4.4-11.6,10.5v11.1c0,6,3.9,10.5,11.6,10.5Z"/>
    <path class="st1" d="M786.9,627.8c-1.7,0-2.8-1.2-2.8-2.8s1.1-2.8,2.8-2.8,2.8,1.2,2.8,2.8-1.2,2.8-2.8,2.8Z"/>
  </g>
  <path class="st0" d="M895.9,466.4c-4.3,0-7.8-2.9-7.8-7.8s3.5-7.8,7.8-7.8,7.8,2.9,7.8,7.8-3.5,7.8-7.8,7.8ZM895.9,465.5c3.8,0,6.8-2.4,6.8-6.9s-3-6.9-6.8-6.9-6.9,2.4-6.9,6.9,3,6.9,6.9,6.9ZM893.7,462.3c-.2,0-.3-.1-.3-.3v-6.9c0-.2.1-.3.3-.3h2.6c1.6,0,2.7.8,2.7,2.3s-.8,2.1-2.2,2.2l2.1,2.6c.2.2,0,.4-.2.4h-.4c-.1,0-.3,0-.4-.2l-2.2-2.8h-1.4v2.7c0,.2-.1.3-.3.3h-.3ZM894.3,458.4h2c1.2,0,1.8-.5,1.8-1.4s-.6-1.4-1.8-1.4h-2v2.8Z"/>
  <g>
    <path class="st1" d="M404.3,522.3v32h-45c-.7,0-1.3,0-2,0-1.7,0-3.4-.7-4.8-1.7-13.4-9.6-24.8-21.6-33.7-35.4-.9-1.4-1.4-3.1-1.4-4.8s0,0,0,0v-38.2h32v38.2c0,5.5,4.4,9.9,9.9,9.9h45Z"/>
    <path class="st0" d="M347.9,569.9c-8.9-13.8-20.4-25.9-33.7-35.4-1.4-1-3.1-1.6-4.8-1.7-.7,0-1.3,0-2,0h-45v31.9h45c5.2,0,9.4,3.9,9.9,9,0,.3,0,.7,0,1v52c0,.3,0,.7,0,1-.2,4.1-2.8,6.3-4.3,7.3-1.4.9-5,2.7-9.4.9-19.7-8.1-67.9-31.3-89.1-71.6-8.2-15.7-8.2-34.3,0-50,18.5-35.1,57.2-57.2,81-68v-34.8c-23.8,9.3-82.2,36.4-109.3,87.9-13.1,25-13.1,54.8,0,79.7,10.8,20.5,38.8,59,105.3,86.3,5.1,2.1,10.6,3.2,16,3.2,7.9,0,15.9-2.2,22.7-6.6,11.5-7.3,18.5-19.3,19.1-32.7,0-.8,0-1.7,0-2.6v-52h0c0-1.8-.5-3.4-1.4-4.8Z"/>
  </g>
</svg>